<?xml version="1.0" encoding="UTF-8" standalone="no"?>
<!DOCTYPE svg PUBLIC "-//W3C//DTD SVG 1.1//EN"
 "http://www.w3.org/Graphics/SVG/1.1/DTD/svg11.dtd">
<!-- Generated by graphviz version 2.26.3 (20100126.1600)
 -->
<!-- Title: models_diagram Pages: 1 -->
<svg width="2728pt" height="438pt"
 viewBox="0.00 0.00 2728.00 438.00" xmlns="http://www.w3.org/2000/svg" xmlns:xlink="http://www.w3.org/1999/xlink">
<g id="graph1" class="graph" transform="scale(1 1) rotate(0) translate(4 434)">
<title>models_diagram</title>
<polygon fill="white" stroke="white" points="-4,5 -4,-434 2725,-434 2725,5 -4,5"/>
<!-- _diagram_info -->
<g id="node1" class="node"><title>_diagram_info</title>
<text text-anchor="start" x="8" y="-413.8" font-family="Times Roman,serif" font-size="13.00">Models diagram</text>
<text text-anchor="start" x="8" y="-396.8" font-family="Times Roman,serif" font-size="13.00">Date: Nov 23 2012 &#45; 16:17</text>
<text text-anchor="start" x="8" y="-379.8" font-family="Times Roman,serif" font-size="13.00">Migration version: 104</text>
<text text-anchor="start" x="8" y="-362.8" font-family="Times Roman,serif" font-size="13.00">Generated by RailRoady 1.1.0</text>
<text text-anchor="start" x="8" y="-345.8" font-family="Times Roman,serif" font-size="13.00">http://railroady.prestonlee.com</text>
</g>
<!-- ConfigManager -->
<g id="node2" class="node"><title>ConfigManager</title>
<polygon fill="none" stroke="black" stroke-dasharray="1,5" points="348,-401 228,-401 228,-365 348,-365 348,-401"/>
<text text-anchor="middle" x="288" y="-379.4" font-family="Times Roman,serif" font-size="14.00">ConfigManager</text>
</g>
<!-- WebNotifier -->
<g id="node3" class="node"><title>WebNotifier</title>
<polygon fill="none" stroke="black" points="481,-281 383,-281 383,-245 481,-245 481,-281"/>
<text text-anchor="middle" x="432" y="-259.4" font-family="Times Roman,serif" font-size="14.00">WebNotifier</text>
</g>
<!-- Article::States -->
<g id="node4" class="node"><title>Article::States</title>
<polygon fill="none" stroke="black" stroke-dasharray="1,5" points="830,-401 716,-401 716,-365 830,-365 830,-401"/>
<text text-anchor="middle" x="773" y="-379.4" font-family="Times Roman,serif" font-size="14.00">Article::States</text>
</g>
<!-- Theme -->
<g id="node5" class="node"><title>Theme</title>
<polygon fill="none" stroke="black" points="1072,-401 1008,-401 1008,-365 1072,-365 1072,-401"/>
<text text-anchor="middle" x="1040" y="-379.4" font-family="Times Roman,serif" font-size="14.00">Theme</text>
</g>
<!-- Redirection -->
<g id="node6" class="node"><title>Redirection</title>
<ellipse fill="none" stroke="black" cx="680" cy="-187" rx="65.9683" ry="18.3848"/>
<text text-anchor="middle" x="680" y="-183.4" font-family="Times Roman,serif" font-size="14.00">Redirection</text>
</g>
<!-- Tag -->
<g id="node7" class="node"><title>Tag</title>
<ellipse fill="none" stroke="black" cx="1136" cy="-263" rx="27.7881" ry="18.3848"/>
<text text-anchor="middle" x="1136" y="-259.4" font-family="Times Roman,serif" font-size="14.00">Tag</text>
</g>
<!-- Article -->
<g id="node27" class="node"><title>Article</title>
<ellipse fill="none" stroke="black" cx="1108" cy="-187" rx="43.1335" ry="18.3848"/>
<text text-anchor="middle" x="1108" y="-183.4" font-family="Times Roman,serif" font-size="14.00">Article</text>
</g>
<!-- Tag&#45;&gt;Article -->
<g id="edge4" class="edge"><title>Tag&#45;&gt;Article</title>
<path fill="none" stroke="#86069d" d="M1125.85,-235.458C1123.38,-228.744 1120.73,-221.557 1118.25,-214.829"/>
<polygon fill="#86069d" stroke="#86069d" points="1125.91,-235.606 1125.14,-246.545 1127.64,-240.297 1129.36,-244.989 1129.36,-244.989 1129.36,-244.989 1127.64,-240.297 1133.59,-243.433 1125.91,-235.606 1125.91,-235.606"/>
<polygon fill="#86069d" stroke="#86069d" points="1118.24,-214.793 1119.01,-203.854 1116.51,-210.101 1114.78,-205.41 1114.78,-205.41 1114.78,-205.41 1116.51,-210.101 1110.56,-206.965 1118.24,-214.793 1118.24,-214.793"/>
</g>
<!-- EmailNotifier -->
<g id="node8" class="node"><title>EmailNotifier</title>
<polygon fill="none" stroke="black" points="603,-281 499,-281 499,-245 603,-245 603,-281"/>
<text text-anchor="middle" x="551" y="-259.4" font-family="Times Roman,serif" font-size="14.00">EmailNotifier</text>
</g>
<!-- Ping -->
<g id="node9" class="node"><title>Ping</title>
<ellipse fill="none" stroke="black" cx="1017" cy="-95" rx="33.234" ry="18.3848"/>
<text text-anchor="middle" x="1017" y="-91.4" font-family="Times Roman,serif" font-size="14.00">Ping</text>
</g>
<!-- Trackback -->
<g id="node10" class="node"><title>Trackback</title>
<ellipse fill="none" stroke="black" cx="1086" cy="-19" rx="58.8978" ry="18.3848"/>
<text text-anchor="middle" x="1086" y="-15.4" font-family="Times Roman,serif" font-size="14.00">Trackback</text>
</g>
<!-- Trigger -->
<g id="node11" class="node"><title>Trigger</title>
<ellipse fill="none" stroke="black" cx="1644" cy="-95" rx="44.7575" ry="18.3848"/>
<text text-anchor="middle" x="1644" y="-91.4" font-family="Times Roman,serif" font-size="14.00">Trigger</text>
</g>
<!-- Content -->
<g id="node12" class="node"><title>Content</title>
<ellipse fill="none" stroke="black" cx="1221" cy="-383" rx="51.1176" ry="18.3848"/>
<text text-anchor="middle" x="1221" y="-379.4" font-family="Times Roman,serif" font-size="14.00">Content</text>
</g>
<!-- Content&#45;&gt;Redirection -->
<g id="edge14" class="edge"><title>Content&#45;&gt;Redirection</title>
<path fill="none" stroke="#1b8143" d="M1177.21,-366.988C1149.79,-357.29 1113.59,-345.081 1081,-336 974.842,-306.424 941.378,-322.779 839,-282 792.033,-263.292 742.786,-231.732 711.773,-210.162"/>
<ellipse fill="none" stroke="#1b8143" cx="1181.29" cy="-368.441" rx="4.00001" ry="4.00001"/>
<polygon fill="#1b8143" stroke="#1b8143" points="711.706,-210.115 706.115,-200.681 707.616,-207.238 703.526,-204.362 703.526,-204.362 703.526,-204.362 707.616,-207.238 700.937,-208.043 711.706,-210.115 711.706,-210.115"/>
</g>
<!-- Content&#45;&gt;Trigger -->
<g id="edge18" class="edge"><title>Content&#45;&gt;Trigger</title>
<path fill="none" stroke="#9d35fc" d="M1248.89,-361.17C1261.47,-352.239 1276.87,-342.499 1292,-336 1324.69,-321.956 1338.04,-333.634 1370,-318 1475.98,-266.152 1577.41,-166.304 1621.28,-119.872"/>
<ellipse fill="none" stroke="#9d35fc" cx="1245.45" cy="-363.671" rx="4.00002" ry="4.00002"/>
<polygon fill="#9d35fc" stroke="#9d35fc" points="1621.47,-119.669 1631.59,-115.445 1624.88,-116.019 1628.3,-112.369 1628.3,-112.369 1628.3,-112.369 1624.88,-116.019 1625.02,-109.293 1621.47,-119.669 1621.47,-119.669"/>
</g>
<!-- Redirect -->
<g id="node15" class="node"><title>Redirect</title>
<ellipse fill="none" stroke="black" cx="672" cy="-263" rx="51.1176" ry="18.3848"/>
<text text-anchor="middle" x="672" y="-259.4" font-family="Times Roman,serif" font-size="14.00">Redirect</text>
</g>
<!-- Content&#45;&gt;Redirect -->
<g id="edge16" class="edge"><title>Content&#45;&gt;Redirect</title>
<path fill="none" stroke="#ca15b6" d="M1178.12,-365.222C1150.81,-354.757 1114.42,-342.362 1081,-336 1005.8,-321.687 808.166,-346.199 737,-318 720.766,-311.567 705.674,-299.361 694.127,-288.079"/>
<polygon fill="#ca15b6" stroke="#ca15b6" points="1178.42,-365.342 1186.11,-373.167 1183.08,-367.158 1187.74,-368.975 1187.74,-368.975 1187.74,-368.975 1183.08,-367.158 1189.38,-364.782 1178.42,-365.342 1178.42,-365.342"/>
<polygon fill="#ca15b6" stroke="#ca15b6" points="694.067,-288.017 690.291,-277.721 690.571,-284.442 687.074,-280.868 687.074,-280.868 687.074,-280.868 690.571,-284.442 683.857,-284.014 694.067,-288.017 694.067,-288.017"/>
</g>
<!-- Feedback -->
<g id="node17" class="node"><title>Feedback</title>
<ellipse fill="none" stroke="black" cx="1307" cy="-95" rx="56.0679" ry="18.3848"/>
<text text-anchor="middle" x="1307" y="-91.4" font-family="Times Roman,serif" font-size="14.00">Feedback</text>
</g>
<!-- Content&#45;&gt;Feedback -->
<g id="edge28" class="edge"><title>Content&#45;&gt;Feedback</title>
<path fill="none" stroke="black" d="M1243.08,-366.099C1256.64,-356.312 1274.68,-344.322 1292,-336 1315.56,-324.679 1330.88,-337.759 1348,-318 1402.66,-254.913 1416.42,-203.887 1374,-132 1367.79,-121.472 1357.39,-113.732 1346.61,-108.136"/>
</g>
<!-- Page -->
<g id="node19" class="node"><title>Page</title>
<ellipse fill="none" stroke="black" cx="1705" cy="-263" rx="34.8574" ry="18.3848"/>
<text text-anchor="middle" x="1705" y="-259.4" font-family="Times Roman,serif" font-size="14.00">Page</text>
</g>
<!-- Content&#45;&gt;Page -->
<g id="edge30" class="edge"><title>Content&#45;&gt;Page</title>
<path fill="none" stroke="black" d="M1240.58,-365.832C1254.05,-355.141 1272.9,-342.268 1292,-336 1368.95,-310.749 1582.94,-352.951 1656,-318 1672.61,-310.053 1686.04,-293.644 1694.61,-280.807"/>
</g>
<!-- Notification -->
<g id="node21" class="node"><title>Notification</title>
<ellipse fill="none" stroke="black" cx="1291" cy="-187" rx="67.1751" ry="18.3848"/>
<text text-anchor="middle" x="1291" y="-183.4" font-family="Times Roman,serif" font-size="14.00">Notification</text>
</g>
<!-- Content&#45;&gt;Notification -->
<g id="edge10" class="edge"><title>Content&#45;&gt;Notification</title>
<path fill="none" stroke="#cd870b" d="M1250.81,-361.901C1263.29,-353.434 1278.09,-343.843 1292,-336 1308.28,-326.819 1320.01,-333.791 1330,-318 1350.61,-285.432 1329.37,-241.457 1311.09,-213.66"/>
<ellipse fill="none" stroke="#cd870b" cx="1247.44" cy="-364.211" rx="4.00002" ry="4.00002"/>
<polygon fill="#cd870b" stroke="#cd870b" points="1310.97,-213.486 1309.02,-202.694 1308.14,-209.362 1305.31,-205.239 1305.31,-205.239 1305.31,-205.239 1308.14,-209.362 1301.6,-207.784 1310.97,-213.486 1310.97,-213.486"/>
</g>
<!-- Content&#45;&gt;Article -->
<g id="edge58" class="edge"><title>Content&#45;&gt;Article</title>
<path fill="none" stroke="black" d="M1181.74,-371.022C1155.83,-361.038 1123.38,-344.159 1105,-318 1081.32,-284.312 1092.63,-232.775 1101.28,-205.469"/>
</g>
<!-- User -->
<g id="node30" class="node"><title>User</title>
<ellipse fill="none" stroke="black" cx="1218" cy="-263" rx="33.9411" ry="18.3848"/>
<text text-anchor="middle" x="1218" y="-259.4" font-family="Times Roman,serif" font-size="14.00">User</text>
</g>
<!-- Content&#45;&gt;User -->
<g id="edge12" class="edge"><title>Content&#45;&gt;User</title>
<path fill="none" stroke="#bd4973" d="M1172.6,-367.552C1135.01,-352.919 1092.59,-328.915 1114,-300 1130.31,-277.967 1147.23,-291.344 1173,-282 1175.93,-280.936 1178.96,-279.785 1181.98,-278.594"/>
<polygon fill="#bd4973" stroke="#bd4973" points="1172.65,-367.568 1180.44,-375.283 1177.33,-369.318 1182.01,-371.067 1182.01,-371.067 1182.01,-371.067 1177.33,-369.318 1183.59,-366.852 1172.65,-367.568 1172.65,-367.568"/>
<polygon fill="#bd4973" stroke="#bd4973" points="1182.27,-278.478 1193.22,-278.881 1186.9,-276.595 1191.53,-274.712 1191.53,-274.712 1191.53,-274.712 1186.9,-276.595 1189.84,-270.544 1182.27,-278.478 1182.27,-278.478"/>
<text text-anchor="middle" x="1156.5" y="-305.4" font-family="Times Roman,serif" font-size="14.00">notify_users</text>
</g>
<!-- Category -->
<g id="node13" class="node"><title>Category</title>
<ellipse fill="none" stroke="black" cx="904" cy="-263" rx="56.0679" ry="18.3848"/>
<text text-anchor="middle" x="904" y="-259.4" font-family="Times Roman,serif" font-size="14.00">Category</text>
</g>
<!-- Category&#45;&gt;Category -->
<g id="edge20" class="edge"><title>Category&#45;&gt;Category</title>
<path fill="none" stroke="#dab61a" d="M963.921,-269.381C972.351,-268.341 978,-266.215 978,-263 978,-260.078 973.332,-258.054 966.149,-256.93"/>
<ellipse fill="none" stroke="#dab61a" cx="959.856" cy="-269.7" rx="4" ry="4"/>
<polygon fill="#dab61a" stroke="#dab61a" points="965.827,-256.9 956.28,-251.505 960.848,-256.443 955.869,-255.986 955.869,-255.986 955.869,-255.986 960.848,-256.443 955.457,-260.467 965.827,-256.9 965.827,-256.9"/>
<text text-anchor="middle" x="1005.5" y="-259.4" font-family="Times Roman,serif" font-size="14.00">children</text>
</g>
<!-- Category&#45;&gt;Article -->
<g id="edge24" class="edge"><title>Category&#45;&gt;Article</title>
<path fill="none" stroke="#5020c5" d="M951.236,-245.402C985.826,-232.516 1032.36,-215.18 1065.73,-202.749"/>
<polygon fill="#5020c5" stroke="#5020c5" points="950.788,-245.569 939.846,-244.844 946.102,-247.315 941.417,-249.06 941.417,-249.06 941.417,-249.06 946.102,-247.315 942.988,-253.277 950.788,-245.569 950.788,-245.569"/>
<polygon fill="#5020c5" stroke="#5020c5" points="1065.83,-202.711 1076.77,-203.437 1070.51,-200.966 1075.2,-199.22 1075.2,-199.22 1075.2,-199.22 1070.51,-200.966 1073.63,-195.003 1065.83,-202.711 1065.83,-202.711"/>
</g>
<!-- Categorization -->
<g id="node29" class="node"><title>Categorization</title>
<ellipse fill="none" stroke="black" cx="714" cy="-95" rx="84.1457" ry="18.3848"/>
<text text-anchor="middle" x="714" y="-91.4" font-family="Times Roman,serif" font-size="14.00">Categorization</text>
</g>
<!-- Category&#45;&gt;Categorization -->
<g id="edge22" class="edge"><title>Category&#45;&gt;Categorization</title>
<path fill="none" stroke="#8c4b62" d="M878.087,-240.088C842.548,-208.663 778.92,-152.403 742.213,-119.946"/>
<ellipse fill="none" stroke="#8c4b62" cx="881.386" cy="-243.004" rx="4.00002" ry="4.00002"/>
<polygon fill="#8c4b62" stroke="#8c4b62" points="741.861,-119.635 737.351,-109.64 738.116,-116.323 734.37,-113.011 734.37,-113.011 734.37,-113.011 738.116,-116.323 731.389,-116.382 741.861,-119.635 741.861,-119.635"/>
</g>
<!-- TextFilter -->
<g id="node14" class="node"><title>TextFilter</title>
<ellipse fill="none" stroke="black" cx="1358" cy="-383" rx="56.7776" ry="18.3848"/>
<text text-anchor="middle" x="1358" y="-379.4" font-family="Times Roman,serif" font-size="14.00">TextFilter</text>
</g>
<!-- Redirect&#45;&gt;Redirection -->
<g id="edge26" class="edge"><title>Redirect&#45;&gt;Redirection</title>
<path fill="none" stroke="#ec8864" d="M674.834,-236.073C675.532,-229.449 676.281,-222.332 676.986,-215.63"/>
<ellipse fill="none" stroke="#ec8864" cx="674.396" cy="-240.235" rx="4" ry="4"/>
<polygon fill="#ec8864" stroke="#ec8864" points="676.998,-215.515 682.52,-206.042 677.522,-210.543 678.045,-205.57 678.045,-205.57 678.045,-205.57 677.522,-210.543 673.57,-205.099 676.998,-215.515 676.998,-215.515"/>
</g>
<!-- Sidebar -->
<g id="node16" class="node"><title>Sidebar</title>
<ellipse fill="none" stroke="black" cx="1487" cy="-383" rx="48.0833" ry="18.3848"/>
<text text-anchor="middle" x="1487" y="-379.4" font-family="Times Roman,serif" font-size="14.00">Sidebar</text>
</g>
<!-- Feedback&#45;&gt;Trackback -->
<g id="edge8" class="edge"><title>Feedback&#45;&gt;Trackback</title>
<path fill="none" stroke="black" d="M1268,-81.5877C1228.1,-67.8661 1166.4,-46.6489 1126.1,-32.7912"/>
</g>
<!-- Comment -->
<g id="node26" class="node"><title>Comment</title>
<ellipse fill="none" stroke="black" cx="1399" cy="-19" rx="58.1882" ry="18.3848"/>
<text text-anchor="middle" x="1399" y="-15.4" font-family="Times Roman,serif" font-size="14.00">Comment</text>
</g>
<!-- Feedback&#45;&gt;Comment -->
<g id="edge36" class="edge"><title>Feedback&#45;&gt;Comment</title>
<path fill="none" stroke="black" d="M1327.88,-77.7544C1342.83,-65.4042 1362.88,-48.8347 1377.89,-36.4404"/>
</g>
<!-- PostType -->
<g id="node18" class="node"><title>PostType</title>
<ellipse fill="none" stroke="black" cx="1610" cy="-383" rx="53.9477" ry="18.3848"/>
<text text-anchor="middle" x="1610" y="-379.4" font-family="Times Roman,serif" font-size="14.00">PostType</text>
</g>
<!-- BlogSweeper -->
<g id="node20" class="node"><title>BlogSweeper</title>
<polygon fill="none" stroke="black" points="1922,-281 1816,-281 1816,-245 1922,-245 1922,-281"/>
<text text-anchor="middle" x="1869" y="-259.4" font-family="Times Roman,serif" font-size="14.00">BlogSweeper</text>
</g>
<!-- NotificationMailer -->
<g id="node22" class="node"><title>NotificationMailer</title>
<polygon fill="none" stroke="black" points="2243,-281 2107,-281 2107,-245 2243,-245 2243,-281"/>
<text text-anchor="middle" x="2175" y="-259.4" font-family="Times Roman,serif" font-size="14.00">NotificationMailer</text>
</g>
<!-- PageCache -->
<g id="node23" class="node"><title>PageCache</title>
<polygon fill="none" stroke="black" points="2387,-401 2295,-401 2295,-365 2387,-365 2387,-401"/>
<text text-anchor="middle" x="2341" y="-379.4" font-family="Times Roman,serif" font-size="14.00">PageCache</text>
</g>
<!-- Blog -->
<g id="node24" class="node"><title>Blog</title>
<ellipse fill="none" stroke="black" cx="2438" cy="-383" rx="33.234" ry="18.3848"/>
<text text-anchor="middle" x="2438" y="-379.4" font-family="Times Roman,serif" font-size="14.00">Blog</text>
</g>
<!-- Feedback::States -->
<g id="node25" class="node"><title>Feedback::States</title>
<polygon fill="none" stroke="black" stroke-dasharray="1,5" points="2623,-401 2489,-401 2489,-365 2623,-365 2623,-401"/>
<text text-anchor="middle" x="2556" y="-379.4" font-family="Times Roman,serif" font-size="14.00">Feedback::States</text>
</g>
<!-- Article&#45;&gt;Ping -->
<g id="edge40" class="edge"><title>Article&#45;&gt;Ping</title>
<path fill="none" stroke="#74f669" d="M1085.17,-163.915C1071.49,-150.084 1054.13,-132.542 1040.36,-118.617"/>
<ellipse fill="none" stroke="#74f669" cx="1088.07" cy="-166.852" rx="4.00002" ry="4.00002"/>
<polygon fill="#74f669" stroke="#74f669" points="1040.16,-118.41 1036.32,-108.136 1036.64,-114.855 1033.12,-111.3 1033.12,-111.3 1033.12,-111.3 1036.64,-114.855 1029.92,-114.465 1040.16,-118.41 1040.16,-118.41"/>
</g>
<!-- Article&#45;&gt;Trackback -->
<g id="edge42" class="edge"><title>Article&#45;&gt;Trackback</title>
<path fill="none" stroke="#6fb14a" d="M1058.7,-180.443C989.944,-170.173 870.767,-147.893 845,-114 796.891,-50.719 930.1,-29.5343 1017.18,-22.4825"/>
<ellipse fill="none" stroke="#6fb14a" cx="1062.87" cy="-181.055" rx="4.00001" ry="4.00001"/>
<polygon fill="#6fb14a" stroke="#6fb14a" points="1017.33,-22.4717 1027.64,-26.1965 1022.31,-22.0906 1027.3,-21.7096 1027.3,-21.7096 1027.3,-21.7096 1022.31,-22.0906 1026.95,-17.2226 1017.33,-22.4717 1017.33,-22.4717"/>
</g>
<!-- Article&#45;&gt;Trackback -->
<g id="edge54" class="edge"><title>Article&#45;&gt;Trackback</title>
<path fill="none" stroke="#5647cf" d="M1102.71,-160.353C1100.12,-146.56 1097.1,-129.422 1095,-114 1091.98,-91.8039 1089.64,-66.5522 1088.1,-47.6649"/>
<ellipse fill="none" stroke="#5647cf" cx="1103.51" cy="-164.535" rx="4.00001" ry="4.00001"/>
<polygon fill="#5647cf" stroke="#5647cf" points="1088.1,-47.5885 1091.8,-37.2665 1087.7,-42.6039 1087.31,-37.6193 1087.31,-37.6193 1087.31,-37.6193 1087.7,-42.6039 1082.83,-37.9721 1088.1,-47.5885 1088.1,-47.5885"/>
<text text-anchor="middle" x="1168.5" y="-91.4" font-family="Times Roman,serif" font-size="14.00">published_trackbacks</text>
</g>
<!-- Article&#45;&gt;Trigger -->
<g id="edge38" class="edge"><title>Article&#45;&gt;Trigger</title>
<path fill="none" stroke="#0b8f54" d="M1154.78,-177.393C1173.44,-173.902 1195.16,-170.263 1215,-168 1292.38,-159.175 1491.32,-175.22 1565,-150 1584.43,-143.35 1603.41,-130.411 1617.89,-118.754"/>
<ellipse fill="none" stroke="#0b8f54" cx="1150.64" cy="-178.18" rx="4.00001" ry="4.00001"/>
<polygon fill="#0b8f54" stroke="#0b8f54" points="1618.19,-118.503 1628.75,-115.55 1622.03,-115.299 1625.87,-112.095 1625.87,-112.095 1625.87,-112.095 1622.03,-115.299 1622.99,-108.64 1618.19,-118.503 1618.19,-118.503"/>
</g>
<!-- Article&#45;&gt;Feedback -->
<g id="edge44" class="edge"><title>Article&#45;&gt;Feedback</title>
<path fill="none" stroke="#c518b9" d="M1138.53,-167.136C1156.54,-155.931 1180.04,-142.18 1202,-132 1219.08,-124.083 1238.36,-116.835 1255.69,-110.893"/>
<ellipse fill="none" stroke="#c518b9" cx="1135.05" cy="-169.322" rx="4.00002" ry="4.00002"/>
<polygon fill="#c518b9" stroke="#c518b9" points="1256.16,-110.735 1267.08,-111.816 1260.9,-109.142 1265.64,-107.55 1265.64,-107.55 1265.64,-107.55 1260.9,-109.142 1264.21,-103.284 1256.16,-110.735 1256.16,-110.735"/>
</g>
<!-- Article&#45;&gt;Feedback -->
<g id="edge56" class="edge"><title>Article&#45;&gt;Feedback</title>
<path fill="none" stroke="#5b784c" d="M1147.93,-171.617C1163.93,-165.229 1182.47,-157.553 1199,-150 1222.4,-139.307 1248.09,-126.282 1268.53,-115.591"/>
<ellipse fill="none" stroke="#5b784c" cx="1144.01" cy="-173.169" rx="4.00001" ry="4.00001"/>
<polygon fill="#5b784c" stroke="#5b784c" points="1268.68,-115.513 1279.63,-114.844 1273.11,-113.187 1277.53,-110.86 1277.53,-110.86 1277.53,-110.86 1273.11,-113.187 1275.44,-106.877 1268.68,-115.513 1268.68,-115.513"/>
<text text-anchor="middle" x="1303" y="-137.4" font-family="Times Roman,serif" font-size="14.00">published_feedback</text>
</g>
<!-- Article&#45;&gt;Comment -->
<g id="edge50" class="edge"><title>Article&#45;&gt;Comment</title>
<path fill="none" stroke="#d76745" d="M1155.29,-177.71C1173.85,-174.298 1195.37,-170.63 1215,-168 1289.09,-158.073 1501.52,-173.316 1547,-114 1557.28,-100.598 1556.56,-89.9239 1547,-76 1535.95,-59.9025 1491.72,-44.1466 1454.46,-33.2945"/>
<ellipse fill="none" stroke="#d76745" cx="1151.19" cy="-178.472" rx="4.00001" ry="4.00001"/>
<polygon fill="#d76745" stroke="#d76745" points="1454.29,-33.2449 1445.9,-26.178 1449.48,-31.8754 1444.67,-30.5059 1444.67,-30.5059 1444.67,-30.5059 1449.48,-31.8754 1443.44,-34.8338 1454.29,-33.2449 1454.29,-33.2449"/>
</g>
<!-- Article&#45;&gt;Comment -->
<g id="edge52" class="edge"><title>Article&#45;&gt;Comment</title>
<path fill="none" stroke="#84299f" d="M1155.32,-177.936C1173.89,-174.553 1195.4,-170.847 1215,-168 1250.19,-162.889 1347.92,-174.173 1374,-150 1388.56,-136.508 1394.83,-82.3325 1397.38,-48.0172"/>
<ellipse fill="none" stroke="#84299f" cx="1151.22" cy="-178.689" rx="4.00001" ry="4.00001"/>
<polygon fill="#84299f" stroke="#84299f" points="1397.41,-47.6274 1402.58,-37.9557 1397.75,-42.6389 1398.09,-37.6504 1398.09,-37.6504 1398.09,-37.6504 1397.75,-42.6389 1393.6,-37.3452 1397.41,-47.6274 1397.41,-47.6274"/>
<text text-anchor="middle" x="1467" y="-91.4" font-family="Times Roman,serif" font-size="14.00">published_comments</text>
</g>
<!-- Resource -->
<g id="node28" class="node"><title>Resource</title>
<ellipse fill="none" stroke="black" cx="910" cy="-95" rx="55.8614" ry="18.3848"/>
<text text-anchor="middle" x="910" y="-91.4" font-family="Times Roman,serif" font-size="14.00">Resource</text>
</g>
<!-- Article&#45;&gt;Resource -->
<g id="edge46" class="edge"><title>Article&#45;&gt;Resource</title>
<path fill="none" stroke="#7b8a37" d="M1071.22,-169.909C1037.34,-154.166 987.106,-130.827 951.737,-114.393"/>
<ellipse fill="none" stroke="#7b8a37" cx="1075.16" cy="-171.74" rx="4.00002" ry="4.00002"/>
<polygon fill="#7b8a37" stroke="#7b8a37" points="951.702,-114.377 944.529,-106.082 947.168,-112.27 942.633,-110.163 942.633,-110.163 942.633,-110.163 947.168,-112.27 940.737,-114.244 951.702,-114.377 951.702,-114.377"/>
</g>
<!-- Article&#45;&gt;Categorization -->
<g id="edge48" class="edge"><title>Article&#45;&gt;Categorization</title>
<path fill="none" stroke="#912739" d="M1057.4,-183.325C985.692,-177.656 858.386,-165.762 815,-150 801.095,-144.948 799.837,-139.354 787,-132 777.844,-126.755 767.857,-121.439 758.291,-116.535"/>
<ellipse fill="none" stroke="#912739" cx="1061.45" cy="-183.641" rx="4" ry="4"/>
<polygon fill="#912739" stroke="#912739" points="758.211,-116.494 751.324,-107.961 753.75,-114.235 749.29,-111.975 749.29,-111.975 749.29,-111.975 753.75,-114.235 747.256,-115.99 758.211,-116.494 758.211,-116.494"/>
</g>
<!-- User&#45;&gt;Content -->
<g id="edge62" class="edge"><title>User&#45;&gt;Content</title>
<path fill="none" stroke="#62965d" d="M1218.72,-291.732C1219.19,-310.647 1219.81,-335.315 1220.28,-354.236"/>
<polygon fill="#62965d" stroke="#62965d" points="1218.72,-291.615 1222.96,-281.506 1218.59,-286.617 1218.47,-281.618 1218.47,-281.618 1218.47,-281.618 1218.59,-286.617 1213.97,-281.731 1218.72,-291.615 1218.72,-291.615"/>
<polygon fill="#62965d" stroke="#62965d" points="1220.28,-354.253 1216.03,-364.363 1220.41,-359.252 1220.53,-364.25 1220.53,-364.25 1220.53,-364.25 1220.41,-359.252 1225.03,-364.137 1220.28,-354.253 1220.28,-354.253"/>
<text text-anchor="middle" x="1274" y="-305.4" font-family="Times Roman,serif" font-size="14.00">notify_contents</text>
</g>
<!-- User&#45;&gt;Notification -->
<g id="edge60" class="edge"><title>User&#45;&gt;Notification</title>
<path fill="none" stroke="#c650bb" d="M1239.62,-240.487C1248.11,-231.654 1257.89,-221.474 1266.62,-212.382"/>
<ellipse fill="none" stroke="#c650bb" cx="1236.61" cy="-243.624" rx="4.00002" ry="4.00002"/>
<polygon fill="#c650bb" stroke="#c650bb" points="1266.73,-212.265 1276.9,-208.17 1270.2,-208.659 1273.66,-205.053 1273.66,-205.053 1273.66,-205.053 1270.2,-208.659 1270.41,-201.936 1266.73,-212.265 1266.73,-212.265"/>
</g>
<!-- User&#45;&gt;Article -->
<g id="edge64" class="edge"><title>User&#45;&gt;Article</title>
<path fill="none" stroke="#46531c" d="M1189.83,-243.539C1174.45,-232.911 1155.36,-219.721 1139.49,-208.754"/>
<ellipse fill="none" stroke="#46531c" cx="1193.5" cy="-246.073" rx="4.00002" ry="4.00002"/>
<polygon fill="#46531c" stroke="#46531c" points="1139.27,-208.605 1133.6,-199.218 1135.16,-205.763 1131.04,-202.921 1131.04,-202.921 1131.04,-202.921 1135.16,-205.763 1128.48,-206.623 1139.27,-208.605 1139.27,-208.605"/>
</g>
<!-- Profile -->
<g id="node31" class="node"><title>Profile</title>
<ellipse fill="none" stroke="black" cx="2678" cy="-263" rx="41.9273" ry="18.3848"/>
<text text-anchor="middle" x="2678" y="-259.4" font-family="Times Roman,serif" font-size="14.00">Profile</text>
</g>
<!-- Right -->
<g id="node32" class="node"><title>Right</title>
<ellipse fill="none" stroke="black" cx="2678" cy="-383" rx="36.977" ry="18.3848"/>
<text text-anchor="middle" x="2678" y="-379.4" font-family="Times Roman,serif" font-size="14.00">Right</text>
</g>
<!-- Right&#45;&gt;Profile -->
<g id="edge66" class="edge"><title>Right&#45;&gt;Profile</title>
<path fill="none" stroke="#df5aa5" d="M2678,-354.236C2678,-335.315 2678,-310.647 2678,-291.732"/>
<polygon fill="#df5aa5" stroke="#df5aa5" points="2678,-354.25 2673.5,-364.25 2678,-359.25 2678,-364.25 2678,-364.25 2678,-364.25 2678,-359.25 2682.5,-364.25 2678,-354.25 2678,-354.25"/>
<polygon fill="#df5aa5" stroke="#df5aa5" points="2678,-291.618 2682.5,-281.618 2678,-286.618 2678,-281.618 2678,-281.618 2678,-281.618 2678,-286.618 2673.5,-281.618 2678,-291.618 2678,-291.618"/>
</g>
<!-- ActiveRecord::Observer -->
<g id="node33" class="node"><title>ActiveRecord::Observer</title>
<ellipse fill="none" stroke="black" cx="492" cy="-383" rx="125.865" ry="18.3848"/>
<text text-anchor="middle" x="492" y="-379.4" font-family="Times Roman,serif" font-size="14.00">ActiveRecord::Observer</text>
</g>
<!-- ActiveRecord::Observer&#45;&gt;WebNotifier -->
<g id="edge2" class="edge"><title>ActiveRecord::Observer&#45;&gt;WebNotifier</title>
<path fill="none" stroke="black" d="M482.756,-364.513C471.449,-341.897 452.423,-303.847 441.156,-281.311"/>
</g>
<!-- ActiveRecord::Observer&#45;&gt;EmailNotifier -->
<g id="edge6" class="edge"><title>ActiveRecord::Observer&#45;&gt;EmailNotifier</title>
<path fill="none" stroke="black" d="M501.089,-364.513C512.209,-341.897 530.917,-303.847 541.997,-281.311"/>
</g>
<!-- ActionController::Caching::Sweeper -->
<g id="node49" class="node"><title>ActionController::Caching::Sweeper</title>
<ellipse fill="none" stroke="black" cx="1869" cy="-383" rx="185.969" ry="18.3848"/>
<text text-anchor="middle" x="1869" y="-379.4" font-family="Times Roman,serif" font-size="14.00">ActionController::Caching::Sweeper</text>
</g>
<!-- ActionController::Caching::Sweeper&#45;&gt;BlogSweeper -->
<g id="edge32" class="edge"><title>ActionController::Caching::Sweeper&#45;&gt;BlogSweeper</title>
<path fill="none" stroke="black" d="M1869,-364.25C1869,-341.574 1869,-303.663 1869,-281.225"/>
</g>
<!-- ActionMailer::Base -->
<g id="node51" class="node"><title>ActionMailer::Base</title>
<ellipse fill="none" stroke="black" cx="2175" cy="-383" rx="101.823" ry="18.3848"/>
<text text-anchor="middle" x="2175" y="-379.4" font-family="Times Roman,serif" font-size="14.00">ActionMailer::Base</text>
</g>
<!-- ActionMailer::Base&#45;&gt;NotificationMailer -->
<g id="edge34" class="edge"><title>ActionMailer::Base&#45;&gt;NotificationMailer</title>
<path fill="none" stroke="black" d="M2175,-364.25C2175,-341.574 2175,-303.663 2175,-281.225"/>
</g>
</g>
</svg>
